<svg xmlns="http://www.w3.org/2000/svg" xmlns:xlink="http://www.w3.org/1999/xlink" width="106" height="28" viewBox="0 0 106 28">
    <defs>
        <linearGradient id="a" x1="50%" x2="50%" y1="4.536%" y2="100%">
            <stop offset="0%" stop-color="#D41459"/>
            <stop offset="100%" stop-color="#911A6C"/>
        </linearGradient>
        <path id="b" d="M9 1.687A7.311 7.311 0 0 0 1.687 9 7.311 7.311 0 0 0 9 16.313 7.311 7.311 0 0 0 16.313 9 7.311 7.311 0 0 0 9 1.687zM2.672 9c0-1.691.657-3.28 1.853-4.475A6.286 6.286 0 0 1 9 2.672c1.691 0 3.28.657 4.475 1.853a6.293 6.293 0 0 1 1.85 4.208c-.31-.362-.851-.844-1.54-.844-.967 0-1.466.904-1.793 1.501l-.137.246c-.401.675-.96 1.055-1.494 1.016-.472-.031-.872-.393-1.132-1.012-.324-.777-1.024-1.61-1.86-1.73-.398-.056-.988.028-1.572.752-.112.141-.242.331-.39.549-.366.545-.921 1.364-1.34 1.434-.608.099-1.086-.263-1.28-.432A6.305 6.305 0 0 1 2.673 9z"/>
    </defs>
    <g fill="none" fill-rule="evenodd">
        <path fill="#000" fill-rule="nonzero" d="M48.42 7.28h3.22L56.98 21h-2.76l-1.12-2.98h-6.28L45.72 21h-2.64l5.34-13.72zm3.86 8.58l-1.4-3.76a22.632 22.632 0 0 1-.68-2.04l-.11-.33a4.648 4.648 0 0 0-.09-.25h-.1l-.2.62-.68 2-1.4 3.76h4.66zm6.18-9.32h2.4V21h-2.4V6.54zm5.18 0h2.4V21h-2.4V6.54zm8.52 14.7c-2.267 0-3.4-1.22-3.4-3.66v-7.1h2.4v6.68c0 .72.163 1.233.49 1.54.327.307.81.46 1.45.46.667 0 1.227-.24 1.68-.72.453-.48.68-1.093.68-1.84v-6.12h2.4V21h-1.98l-.2-1.4h-.14c-.387.52-.863.923-1.43 1.21-.567.287-1.217.43-1.95.43zm8.5-10.76h1.98l.22 1.66H83c.48-1.267 1.267-1.9 2.36-1.9.24 0 .453.023.64.07.187.047.307.083.36.11v2.26h-.76c-1.693 0-2.54.947-2.54 2.84V21h-2.4V10.48zm13.2 10.76c-1.84 0-3.263-.447-4.27-1.34-1.007-.893-1.51-2.22-1.51-3.98V7.28h2.56v8.58c0 1.053.28 1.853.84 2.4.56.547 1.353.82 2.38.82s1.827-.273 2.4-.82c.573-.547.86-1.347.86-2.4V7.28h2.56v8.64c0 1.76-.507 3.087-1.52 3.98-1.013.893-2.447 1.34-4.3 1.34zm8.76-13.96h2.54V21h-2.54V7.28z"/>
        <g>
            <rect width="28" height="28" fill="url(#a)" rx="4"/>
            <g transform="translate(5 5)">
                <mask id="c" fill="#fff">
                    <use xlink:href="#b"/>
                </mask>
                <g fill="#FFF" mask="url(#c)">
                    <path d="M0 0h18v18H0z"/>
                </g>
            </g>
        </g>
    </g>
</svg>
