<svg xmlns="http://www.w3.org/2000/svg" xmlns:xlink="http://www.w3.org/1999/xlink" width="28" height="28" viewBox="0 0 28 28">
    <defs>
        <linearGradient id="a" x1="50%" x2="50%" y1="4.536%" y2="100%">
            <stop offset="0%" stop-color="#D41459"/>
            <stop offset="100%" stop-color="#911A6C"/>
        </linearGradient>
        <path id="b" d="M9 1.687A7.311 7.311 0 0 0 1.687 9 7.311 7.311 0 0 0 9 16.313 7.311 7.311 0 0 0 16.313 9 7.311 7.311 0 0 0 9 1.687zM2.672 9c0-1.691.657-3.28 1.853-4.475A6.286 6.286 0 0 1 9 2.672c1.691 0 3.28.657 4.475 1.853a6.293 6.293 0 0 1 1.85 4.208c-.31-.362-.851-.844-1.54-.844-.967 0-1.466.904-1.793 1.501l-.137.246c-.401.675-.96 1.055-1.494 1.016-.472-.031-.872-.393-1.132-1.012-.324-.777-1.024-1.61-1.86-1.73-.398-.056-.988.028-1.572.752-.112.141-.242.331-.39.549-.366.545-.921 1.364-1.34 1.434-.608.099-1.086-.263-1.28-.432A6.305 6.305 0 0 1 2.673 9z"/>
    </defs>
    <g fill="none" fill-rule="evenodd">
        <rect width="28" height="28" fill="url(#a)" rx="4"/>
        <g transform="translate(5 5)">
            <mask id="c" fill="#fff">
                <use xlink:href="#b"/>
            </mask>
            <g fill="#FFF" mask="url(#c)">
                <path d="M0 0h18v18H0z"/>
            </g>
        </g>
    </g>
</svg>
